<svg id="Livello_1" data-name="Livello 1" xmlns="http://www.w3.org/2000/svg" viewBox="0 0 711.53 801.95"><path d="M131.22,1.12c27.21,6.93,51.58,20.1,75,35,12.56,8,25,16.4,36.32,26.06,26,22.23,52.16,44.38,76.43,68.41,15.76,15.6,28.5,34.29,42.2,51.9,17.26,22.19,29.66,47.11,39.53,73.32,1.89,5,3,10.34,4.35,15.3l34.16-4.82c-4-5.21-6.94-10.43-11.17-14.13-11.84-10.35-21.51-22.17-27.5-36.77-3-7.38-6.47-14.76-8.26-22.48-7.4-32.19,12.1-57.25,46.5-62,7.11-1,14.38-2,21.48-1.59,7.75.49,12.13-3,15.59-9C495.78,85.49,524.57,59,555.91,35c14.75-11.32,29.91-21.94,48-27.38S630,8.4,628,27.26C624.91,56,613,81.54,598.26,106c-6,9.92-11.5,20.12-17.75,29.86-6.1,9.49-13,18.46-19.21,27.91-1.33,2-2.4,6.33-1.32,7.53,8.07,9,15.45,19.08,28.06,22.55-1.53,9.82-6.72,12.92-14.06,7.36-5.3-4-7.52-2.07-10.32,2.44-4,6.48-7.86,13.31-13,18.79-2.37,2.51-8,3.43-11.76,2.87-10.53-1.54-13.37.29-13.35,10.7,0,18.73-15.32,36.74-34.27,41.28-4.4,1.06-11.52,4.79-11.52,7.28,0,4.5,3.39,10.36,7.19,13.26,27,20.62,57,26.51,89.85,16.62,2.58-.78,5.15-1.57,7.74-2.34,6.55-2,10.47-5.17,13.06-12.68,3.81-11.09,8.06-23.52,22.46-26.47,4.72-1,9.32-2.51,8.21,6.62l118.2-86L734.89,189c14.76-4.54,22-12.67,17-28l2.17-.6c5.59,3.37,10.88,8.68,16.84,9.59s12.6-2.56,20.33-4.46c-2.39,6.39-6.71,12.27-5.85,17.24.9,5.33,6.71,9.81,11.83,16.57-8.14,0-15.1-1.61-20.68.46-5.37,2-9.35,7.78-14.14,12.09-1.54-4.55-3.29-9.76-5.62-16.65-7.79,5.4-15,10.25-22,15.33q-45.4,32.7-90.64,65.56c-7.25,5.26-14.18,11-21.55,16-5.21,3.58-6.46,7.8-5.23,13.88,2,9.83-1.52,14.43-11.45,16.51-39.06,8.19-77.89,10.17-116.14-4.15q-4.62-1.73-9.2-3.55c-3-1.18-6-2.4-10.39-4.18-2,8.47-3.7,16-5.49,23.42-3.72,15.55-10.91,19.59-26.81,17.56-21.74-2.77-41.59,3.4-59,16.39-6,4.48-6.53,11.58-2.26,17.83,6,8.76,13.75,16.48,18.79,25.72,13.6,24.87,27.67,49.76,29.45,79.11.12,2.08,0,4.17,0,7.56-7.92-6.55-13.62-2.93-20,1.63-2.22,1.58-7.32-.9-12.46-1.76a68.44,68.44,0,0,0-1.69,8.53,1079,1079,0,0,0,2,191.65c1.66,16.24,6.93,32.08,9.38,48.29a279.22,279.22,0,0,1,3,40.13c0,7.74-3.51,14.72-12.78,16.07-8.64,1.25-19.28-3-21.6-11-2.49-8.65-4.19-18.49-2.64-27.18,5.28-29.59,2.33-58.67-2.88-87.72-1.23-6.86-4.32-13.39-6.65-20.38-15.1,4.89-30,10.19-45.2,14.55-27.11,7.78-55,8.75-83,7.93-2.29-.07-6.58-2.56-6.47-3,1.06-3.85,1.91-9.38,4.67-10.78,5.07-2.57,11.37-3.55,17.17-3.59,8.24,0,16,0,22.95-5.57,2.06-1.65,5.56-2.36,8.3-2.16,19.68,1.42,38.19-3.3,55.94-11,5.56-2.4,10.23-7.15,14.8-11.37,1.24-1.15,1.5-4.72.7-6.48-13.77-30.34-30.85-58.76-49.87-86.08-3.55-5.1-7.22-10.86-8.28-16.78-1.7-9.52-7.37-11.59-15.28-11.26-15,.63-30,1.88-44.95,2.14-7.77.14-15.58-1.26-23.37-2l-.51-3.14,35.43-28.69-1-2.58c-18.2-4.23-35.43,3.22-52.9,7.67l-1.8-3.26c6.49-6,13-12,19.46-18.16,7-6.74,15.2-12.77,20.64-20.65,6-8.76,2.18-14.7-8.29-15.83-11.06-1.19-13.69-5.7-9.57-16.42,5.45-14.22,16.81-23.34,29-30.7,16-9.64,33-17.57,49.23-28.17-8,.78-15.92,1.7-23.9,2.32-19.56,1.51-39,2-57.27-7.16-1.06-.53-2.55-.7-3.17-1.53-2.19-2.94-4.08-6.09-6.09-9.16,3.55-.61,7.49-2.5,10.57-1.57,6,1.83,11.75,5.95,13.86-6.74,6.27,20.25,19.55,17.7,32.91,14.71,13.68-3.07,27.34-6.25,42.61-9.75-9.52-7-18.12-12.76-26-19.33-13.47-11.19-27.89-21.66-39.41-34.65-18.89-21.3-36.32-44-53.31-66.85a372.63,372.63,0,0,1-29-45.74c-12.47-23.29-23-47.59-35.13-71.07-10-19.33-14-40-15.31-61.24-.92-14.51,2.41-27.63,19-32.31Z" transform="translate(-97.51 -1.03)"/><path d="M744.87,636.66c-1.74-2.31-4.14-4.36-5.11-7-5.57-14.87-18-14-30.28-13.73-1.73,0-3.46-.4-8.63-1,17.75-11.19,21.82-24.84,12.31-42.9,18.09,12,33.66,7.76,49.54-6,0,11-2.41,20.11.7,26.58,2.94,6.12,11.69,9.44,20,15.57-19,2.37-35.8,5.49-35.67,29.4Z" transform="translate(-97.51 -1.03)"/><path d="M658.47,681.16c-8.19-2.27-16.68-7-24.49-6.1s-14.88,7.57-23.76,12.53c0-9.88,2.43-19-.7-25.48-2.95-6.1-11.73-9.38-19.65-15.13,9.64-2.21,19.31-1.91,25.16-6.5s7.83-14,12-22.26c2.88,3.34,6.76,6.41,8.69,10.41,3.82,7.92,9.46,10.66,17.92,9.64,4.91-.6,10-.11,16.34.88-14.28,11.51-21.62,24.19-8.59,41.56Z" transform="translate(-97.51 -1.03)"/><path d="M720.07,726.23c-9.14,10.09-16.09,19.08-5.44,32.48-14.51-6.65-26.93-7.28-38.36,4.92,1.74-14.4-.43-25.32-15.18-30.47,12.5-3.21,25.82-4.62,25.33-25C696.07,721.12,704.24,730.77,720.07,726.23Z" transform="translate(-97.51 -1.03)"/><path d="M734.35,463.15c7.9,10.94,16.56,17.61,30.29,13.92l.57,2.13c-3.83,4.17-9.76,7.84-10.89,12.64-1.06,4.49,3,10.19,5.29,16.9-7.12-2.11-13.37-5.75-19.21-5.17-5.6.55-10.76,5.48-18.29,9.69,3.59-13.92.2-23.32-14.42-29.22C721.55,481,733.5,479,734.35,463.15Z" transform="translate(-97.51 -1.03)"/><path d="M802,390.85c-11.44-7.57-20.61-3.36-31.45,5.44,2.66-12.87.64-21.54-10.08-26.89,10.62-2.54,20.28-4.89,21.28-18.61,5.79,12,15.46,14.12,27.29,13.78C799.42,371.52,796.46,379.74,802,390.85Z" transform="translate(-97.51 -1.03)"/><path d="M731.24,285c4.88,12.69,14.52,13.41,27.35,12.07-9.46,8.07-13.61,15.93-7.14,27-11.25-6.34-20.85-3.23-31.69,4.47,3.32-12.75.07-20.5-12.23-24.93C718.64,300.25,729.34,298.71,731.24,285Z" transform="translate(-97.51 -1.03)"/><path d="M805.14,434.9c-6,3.34-7.7,9.1-4.42,15.3l-19,1.36-8.45-14.29L787.56,426Z" transform="translate(-97.51 -1.03)"/><path d="M745.61,384c-.91,4.21-2.08,9.57-3.19,14.63l-18.11,2-6.37-14.07L731.06,377Z" transform="translate(-97.51 -1.03)"/><path d="M675.61,556.91c-1.11,4.41-2.31,9.16-3.51,13.89l-16.6,1.41L649,559.55l12.15-9.72Z" transform="translate(-97.51 -1.03)"/><path d="M762.91,242.88l-14.42,6-11.75-10L746,226.6l15,2.34C761.54,232.69,762.23,237.85,762.91,242.88Z" transform="translate(-97.51 -1.03)"/></svg>